{
  "accessors": [
    {
      "bufferView": 0,
      "componentType": 5125,
      "count": 111744,
      "type": "SCALAR"
    },
    {
      "bufferView": 1,
      "componentType": 5126,
      "count": 19164,
      "max": [
        1.00000190734863,
        13.4986801147461,
        25.2608261108398
      ],
      "min": [
        -35.3670806884766,
        -1.17469787597656,
        -5.58354568481445
      ],
      "type": "VEC3"
    },
    {
      "bufferView": 2,
      "componentType": 5126,
      "count": 19164,
      "type": "VEC3"
    },
    {
      "bufferView": 3,
      "componentType": 5126,
      "count": 19164,
      "type": "VEC4"
    },
    {
      "bufferView": 4,
      "componentType": 5126,
      "count": 19164,
      "type": "VEC2"
    },
    {
      "bufferView": 5,
      "componentType": 5125,
      "count": 71106,
      "type": "SCALAR"
    },
    {
      "bufferView": 6,
      "componentType": 5126,
      "count": 13134,
      "max": [
        21.034688949585,
        37.3747062683105,
        72.0014801025391
      ],
      "min": [
        -54.1965637207031,
        -113.295623779297,
        -13.2036170959473
      ],
      "type": "VEC3"
    },
    {
      "bufferView": 7,
      "componentType": 5126,
      "count": 13134,
      "type": "VEC3"
    },
    {
      "bufferView": 8,
      "componentType": 5126,
      "count": 13134,
      "type": "VEC4"
    },
    {
      "bufferView": 9,
      "componentType": 5126,
      "count": 13134,
      "type": "VEC2"
    },
    {
      "bufferView": 10,
      "componentType": 5125,
      "count": 1152,
      "type": "SCALAR"
    },
    {
      "bufferView": 11,
      "componentType": 5126,
      "count": 234,
      "max": [
        -5.2551212310791,
        -7.20981216430664,
        72.5931701660156
      ],
      "min": [
        -29.568883895874,
        -12.5892944335938,
        71.7170715332031
      ],
      "type": "VEC3"
    },
    {
      "bufferView": 12,
      "componentType": 5126,
      "count": 234,
      "type": "VEC3"
    },
    {
      "bufferView": 13,
      "componentType": 5126,
      "count": 234,
      "type": "VEC4"
    },
    {
      "bufferView": 14,
      "componentType": 5126,
      "count": 234,
      "type": "VEC2"
    },
    {
      "bufferView": 15,
      "componentType": 5125,
      "count": 11136,
      "type": "SCALAR"
    },
    {
      "bufferView": 16,
      "componentType": 5126,
      "count": 3855,
      "max": [
        -14.0540685653687,
        25.1844139099121,
        75.9906997680664
      ],
      "min": [
        -20.475830078125,
        18.7626457214355,
        64.0274047851562
      ],
      "type": "VEC3"
    },
    {
      "bufferView": 17,
      "componentType": 5126,
      "count": 3855,
      "type": "VEC3"
    },
    {
      "bufferView": 18,
      "componentType": 5126,
      "count": 3855,
      "type": "VEC4"
    },
    {
      "bufferView": 19,
      "componentType": 5126,
      "count": 3855,
      "type": "VEC2"
    },
    {
      "bufferView": 20,
      "componentType": 5125,
      "count": 1920,
      "type": "SCALAR"
    },
    {
      "bufferView": 21,
      "componentType": 5126,
      "count": 354,
      "max": [
        -0.0247097015380859,
        14.9304389953613,
        25.436351776123
      ],
      "min": [
        -34.3423652648926,
        -2.60646438598633,
        -5.65235137939453
      ],
      "type": "VEC3"
    },
    {
      "bufferView": 22,
      "componentType": 5126,
      "count": 354,
      "type": "VEC3"
    },
    {
      "bufferView": 23,
      "componentType": 5126,
      "count": 354,
      "type": "VEC4"
    },
    {
      "bufferView": 24,
      "componentType": 5126,
      "count": 354,
      "type": "VEC2"
    }
  ],
  "asset": {
    "generator": "Adobe Substance 3D Painter 9.1.2",
    "version": "2.0"
  },
  "bufferViews": [
    {
      "buffer": 0,
      "byteLength": 446976,
      "target": 34963
    },
    {
      "buffer": 0,
      "byteLength": 229968,
      "byteOffset": 446976,
      "target": 34962
    },
    {
      "buffer": 0,
      "byteLength": 229968,
      "byteOffset": 676944,
      "target": 34962
    },
    {
      "buffer": 0,
      "byteLength": 306624,
      "byteOffset": 906912,
      "target": 34962
    },
    {
      "buffer": 0,
      "byteLength": 153312,
      "byteOffset": 1213536,
      "target": 34962
    },
    {
      "buffer": 0,
      "byteLength": 284424,
      "byteOffset": 1366848,
      "target": 34963
    },
    {
      "buffer": 0,
      "byteLength": 157608,
      "byteOffset": 1651272,
      "target": 34962
    },
    {
      "buffer": 0,
      "byteLength": 157608,
      "byteOffset": 1808880,
      "target": 34962
    },
    {
      "buffer": 0,
      "byteLength": 210144,
      "byteOffset": 1966488,
      "target": 34962
    },
    {
      "buffer": 0,
      "byteLength": 105072,
      "byteOffset": 2176632,
      "target": 34962
    },
    {
      "buffer": 0,
      "byteLength": 4608,
      "byteOffset": 2281704,
      "target": 34963
    },
    {
      "buffer": 0,
      "byteLength": 2808,
      "byteOffset": 2286312,
      "target": 34962
    },
    {
      "buffer": 0,
      "byteLength": 2808,
      "byteOffset": 2289120,
      "target": 34962
    },
    {
      "buffer": 0,
      "byteLength": 3744,
      "byteOffset": 2291928,
      "target": 34962
    },
    {
      "buffer": 0,
      "byteLength": 1872,
      "byteOffset": 2295672,
      "target": 34962
    },
    {
      "buffer": 0,
      "byteLength": 44544,
      "byteOffset": 2297544,
      "target": 34963
    },
    {
      "buffer": 0,
      "byteLength": 46260,
      "byteOffset": 2342088,
      "target": 34962
    },
    {
      "buffer": 0,
      "byteLength": 46260,
      "byteOffset": 2388348,
      "target": 34962
    },
    {
      "buffer": 0,
      "byteLength": 61680,
      "byteOffset": 2434608,
      "target": 34962
    },
    {
      "buffer": 0,
      "byteLength": 30840,
      "byteOffset": 2496288,
      "target": 34962
    },
    {
      "buffer": 0,
      "byteLength": 7680,
      "byteOffset": 2527128,
      "target": 34963
    },
    {
      "buffer": 0,
      "byteLength": 4248,
      "byteOffset": 2534808,
      "target": 34962
    },
    {
      "buffer": 0,
      "byteLength": 4248,
      "byteOffset": 2539056,
      "target": 34962
    },
    {
      "buffer": 0,
      "byteLength": 5664,
      "byteOffset": 2543304,
      "target": 34962
    },
    {
      "buffer": 0,
      "byteLength": 2832,
      "byteOffset": 2548968,
      "target": 34962
    }
  ],
  "buffers": [
    {
      "byteLength": 2551800,
      "uri": "toilette.bin"
    }
  ],
  "images": [
    {
      "uri": "boulon_baseColor.png"
    },
    {
      "uri": "boulon_occlusionRoughnessMetallic.png"
    },
    {
      "uri": "boulon_normal.png"
    },
    {
      "uri": "bouton_baseColor.png"
    },
    {
      "uri": "bouton_occlusionRoughnessMetallic.png"
    },
    {
      "uri": "bouton_normal.png"
    },
    {
      "uri": "plaque_baseColor.png"
    },
    {
      "uri": "plaque_occlusionRoughnessMetallic.png"
    },
    {
      "uri": "plaque_normal.png"
    },
    {
      "uri": "toilette_baseColor.png"
    },
    {
      "uri": "toilette_occlusionRoughnessMetallic.png"
    },
    {
      "uri": "toilette_normal.png"
    },
    {
      "uri": "truc_baseColor.png"
    },
    {
      "uri": "truc_occlusionRoughnessMetallic.png"
    },
    {
      "uri": "truc_normal.png"
    }
  ],
  "materials": [
    {
      "alphaMode": "OPAQUE",
      "name": "boulon",
      "normalTexture": {
        "index": 2
      },
      "occlusionTexture": {
        "index": 1
      },
      "pbrMetallicRoughness": {
        "baseColorTexture": {
          "index": 0
        },
        "metallicRoughnessTexture": {
          "index": 1
        }
      }
    },
    {
      "alphaMode": "OPAQUE",
      "name": "bouton",
      "normalTexture": {
        "index": 5
      },
      "occlusionTexture": {
        "index": 4
      },
      "pbrMetallicRoughness": {
        "baseColorTexture": {
          "index": 3
        },
        "metallicRoughnessTexture": {
          "index": 4
        }
      }
    },
    {
      "alphaMode": "OPAQUE",
      "name": "plaque",
      "normalTexture": {
        "index": 8
      },
      "occlusionTexture": {
        "index": 7
      },
      "pbrMetallicRoughness": {
        "baseColorTexture": {
          "index": 6
        },
        "metallicRoughnessTexture": {
          "index": 7
        }
      }
    },
    {
      "alphaMode": "OPAQUE",
      "name": "toilette",
      "normalTexture": {
        "index": 11
      },
      "occlusionTexture": {
        "index": 10
      },
      "pbrMetallicRoughness": {
        "baseColorTexture": {
          "index": 9
        },
        "metallicRoughnessTexture": {
          "index": 10
        }
      }
    },
    {
      "alphaMode": "OPAQUE",
      "name": "truc",
      "normalTexture": {
        "index": 14
      },
      "occlusionTexture": {
        "index": 13
      },
      "pbrMetallicRoughness": {
        "baseColorTexture": {
          "index": 12
        },
        "metallicRoughnessTexture": {
          "index": 13
        }
      }
    }
  ],
  "meshes": [
    {
      "name": "toilette",
      "primitives": [
        {
          "attributes": {
            "NORMAL": 2,
            "POSITION": 1,
            "TANGENT": 3,
            "TEXCOORD_0": 4
          },
          "indices": 0,
          "material": 0,
          "mode": 4
        }
      ]
    },
    {
      "name": "toilette",
      "primitives": [
        {
          "attributes": {
            "NORMAL": 7,
            "POSITION": 6,
            "TANGENT": 8,
            "TEXCOORD_0": 9
          },
          "indices": 5,
          "material": 3,
          "mode": 4
        }
      ]
    },
    {
      "name": "toilette",
      "primitives": [
        {
          "attributes": {
            "NORMAL": 12,
            "POSITION": 11,
            "TANGENT": 13,
            "TEXCOORD_0": 14
          },
          "indices": 10,
          "material": 4,
          "mode": 4
        }
      ]
    },
    {
      "name": "toilette",
      "primitives": [
        {
          "attributes": {
            "NORMAL": 17,
            "POSITION": 16,
            "TANGENT": 18,
            "TEXCOORD_0": 19
          },
          "indices": 15,
          "material": 1,
          "mode": 4
        }
      ]
    },
    {
      "name": "toilette",
      "primitives": [
        {
          "attributes": {
            "NORMAL": 22,
            "POSITION": 21,
            "TANGENT": 23,
            "TEXCOORD_0": 24
          },
          "indices": 20,
          "material": 2,
          "mode": 4
        }
      ]
    }
  ],
  "nodes": [
    {
      "children": [
        1
      ],
      "name": "RootNode",
      "scale": [
        0.00999999977648258,
        0.00999999977648258,
        0.00999999977648258
      ]
    },
    {
      "children": [
        2,
        3,
        4,
        5,
        6
      ],
      "name": "toilette",
      "rotation": [
        -0.707106828689575,
        0.0,
        0.0,
        0.707106709480286
      ],
      "scale": [
        2.10548305511475,
        2.10548305511475,
        2.10548305511475
      ],
      "translation": [
        34.7169647216797,
        144.560165405273,
        -138.885925292969
      ]
    },
    {
      "mesh": 0,
      "name": "toilette"
    },
    {
      "mesh": 1,
      "name": "toilette"
    },
    {
      "mesh": 2,
      "name": "toilette"
    },
    {
      "mesh": 3,
      "name": "toilette"
    },
    {
      "mesh": 4,
      "name": "toilette"
    }
  ],
  "samplers": [
    {
      "magFilter": 9729,
      "minFilter": 9985,
      "wrapS": 10497,
      "wrapT": 10497
    }
  ],
  "scene": 0,
  "scenes": [
    {
      "name": "Scene",
      "nodes": [
        0
      ]
    }
  ],
  "textures": [
    {
      "sampler": 0,
      "source": 0
    },
    {
      "sampler": 0,
      "source": 1
    },
    {
      "sampler": 0,
      "source": 2
    },
    {
      "sampler": 0,
      "source": 3
    },
    {
      "sampler": 0,
      "source": 4
    },
    {
      "sampler": 0,
      "source": 5
    },
    {
      "sampler": 0,
      "source": 6
    },
    {
      "sampler": 0,
      "source": 7
    },
    {
      "sampler": 0,
      "source": 8
    },
    {
      "sampler": 0,
      "source": 9
    },
    {
      "sampler": 0,
      "source": 10
    },
    {
      "sampler": 0,
      "source": 11
    },
    {
      "sampler": 0,
      "source": 12
    },
    {
      "sampler": 0,
      "source": 13
    },
    {
      "sampler": 0,
      "source": 14
    }
  ]
}